<svg width="33px" height="32px" viewBox="0 0 33 32" version="1.1" xmlns="http://www.w3.org/2000/svg" xmlns:xlink="http://www.w3.org/1999/xlink">
    <defs>
        <filter x="-3.9%" y="-4.5%" width="107.8%" height="108.9%" filterUnits="objectBoundingBox" id="filter-1">
            <feOffset dx="0" dy="2" in="SourceAlpha" result="shadowOffsetOuter1"></feOffset>
            <feGaussianBlur stdDeviation="1.5" in="shadowOffsetOuter1" result="shadowBlurOuter1"></feGaussianBlur>
            <feColorMatrix values="0 0 0 0 0   0 0 0 0 0   0 0 0 0 0  0 0 0 0.170855978 0" type="matrix" in="shadowBlurOuter1" result="shadowMatrixOuter1"></feColorMatrix>
            <feMerge>
                <feMergeNode in="shadowMatrixOuter1"></feMergeNode>
                <feMergeNode in="SourceGraphic"></feMergeNode>
            </feMerge>
        </filter>
    </defs>
    <g id="Symbols" stroke="none" stroke-width="1" fill="none" fill-rule="evenodd">
        <g id="ACT-CARD-" transform="translate(-11.000000, -190.000000)" fill="#FFFFFF">
            <g id="Card-Phy-Copy" filter="url(#filter-1)">
                <g id="icon-" transform="translate(9.000000, 184.000000)">
                    <g id="physical-icon" transform="translate(5.000000, 7.000000)">
                        <path d="M19.6766685,5 C19.6766685,5 16.178095,5.03242529 15.4651081,8.04407017 C14.7521212,11.0557151 18.9964672,10.6072304 19.9037973,10.8631167 C20.8103375,11.1193936 20.9722902,12.6578367 19.4503297,13.6505192 C17.9275793,14.6439831 14.7849067,15.2846755 15.0116405,17.8482264 C15.2387693,20.4117772 17.6036739,22.0775771 20.06575,20.1867536 C22.5274312,18.2971017 25.1846406,13.4911275 24.9899024,10.0626419 C24.7959541,6.63454692 22.7873455,5.06406924 19.6766685,5 L19.6766685,5 L19.6766685,5 L19.6766685,5 Z" id="Fill-1"></path>
                        <path d="M18,2 C18,3.10456795 17.1045701,4 16,4 C14.8954299,4 14,3.10456795 14,2 C14,0.895432054 14.8954299,0 16,0 C17.1045701,0 18,0.895432054 18,2 L18,2 Z" id="Fill-3"></path>
                        <path d="M21,2 C21,2.55228581 20.5522866,3 20,3 C19.4477134,3 19,2.55228581 19,2 C19,1.44771419 19.4477134,1 20,1 C20.5522866,1 21,1.44771419 21,2 L21,2 Z" id="Fill-4"></path>
                        <path d="M24,3 C24,3.55228571 23.5522856,4 23,4 C22.4477144,4 22,3.55228571 22,3 C22,2.44771429 22.4477144,2 23,2 C23.5522856,2 24,2.44771429 24,3 L24,3 Z" id="Fill-5"></path>
                        <path d="M26,5 C26,5.55228542 25.5522854,6 25,6 C24.4477146,6 24,5.55228542 24,5 C24,4.44771458 24.4477146,4 25,4 C25.5522854,4 26,4.44771458 26,5 L26,5 Z" id="Fill-6"></path>
                        <path d="M27,6.5 C27,6.7761419 26.7761408,7 26.5,7 C26.2238592,7 26,6.7761419 26,6.5 C26,6.2238581 26.2238592,6 26.5,6 C26.7761408,6 27,6.2238581 27,6.5 L27,6.5 Z" id="Fill-7"></path>
                        <path d="M7.15064807,10.1126745 C7.15064807,10.1126745 10.621083,9.27715132 12.071426,12.1565617 C13.5221717,15.035972 9.21140754,15.6338244 8.3767154,16.1185585 C7.54202325,16.6041093 7.76267511,18.2045077 9.51540781,18.8350296 C11.2677379,19.4651431 14.5360428,19.3360984 14.9451346,21.993356 C15.3550316,24.6510216 13.4275491,26.9272716 10.5228365,25.6200818 C7.61933193,24.3124844 3.80100796,20.0944398 3.14589744,16.5677645 C2.48917632,13.0402724 4.08890226,10.9494227 7.15064807,10.1126745 L7.15064807,10.1126745 L7.15064807,10.1126745 L7.15064807,10.1126745 Z" id="Fill-8"></path>
                        <path d="M8.07955403,6.41258182 C7.77214761,5.33199859 8.38275619,4.27129848 9.44339193,4.04343411 C10.5040235,3.81557334 11.6130395,4.50683857 11.9204459,5.58742179 C12.2278524,6.6680014 11.6172438,7.72870512 10.5566122,7.95656589 C9.49597647,8.18442665 8.38696046,7.49316143 8.07955403,6.41258182 L8.07955403,6.41258182 Z" id="Fill-9"></path>
                        <path d="M5.03676201,7.2147309 C4.88891323,6.67544638 5.20031416,6.14213342 5.73229646,6.02354406 C6.26427611,5.9049513 6.81538935,6.24598474 6.96323812,6.78526926 C7.1110869,7.32455037 6.79968408,7.85786333 6.26770443,7.9764561 C5.735721,8.09504886 5.18461116,7.75401201 5.03676201,7.2147309 L5.03676201,7.2147309 Z" id="Fill-10"></path>
                        <path d="M3.03819733,9.21143719 C3.18796727,9.75034247 3.74000116,10.094398 4.27088598,9.97702789 C4.80306564,9.8604249 5.11253265,9.32842375 4.96189948,8.78875135 C4.81212953,8.24869539 4.25966403,7.9061741 3.72877921,8.02277709 C3.19573632,8.13976365 2.88756415,8.6717648 3.03819733,9.21143719 L3.03819733,9.21143719 L3.03819733,9.21143719 L3.03819733,9.21143719 Z" id="Fill-11"></path>
                        <path d="M3,11 C3,11.5522854 2.55228492,12 2,12 C1.44771508,12 1,11.5522854 1,11 C1,10.4477146 1.44771508,10 2,10 C2.55228492,10 3,10.4477146 3,11 L3,11 Z" id="Fill-12"></path>
                        <path d="M0.0180261759,13.6087088 C-0.0551910305,13.3392325 0.101241773,13.0721101 0.367428701,13.0120702 C0.633615258,12.9520333 0.908756703,13.121815 0.981973842,13.3912912 C1.05519098,13.6607675 0.898758312,13.9278899 0.632571418,13.9879298 C0.366384525,14.0479667 0.0912433487,13.878185 0.0180261759,13.6087088 L0.0180261759,13.6087088 Z" id="Fill-13"></path>
                    </g>
                </g>
            </g>
        </g>
    </g>
</svg>